<svg xmlns="http://www.w3.org/2000/svg" viewBox="0 0 860 34" width="100%" height="34" fill="none" role="presentation">
  <defs>
    <linearGradient id="g" x1="0" y1="0" x2="1" y2="0">
      <stop offset="0"    stop-color="#00C853" stop-opacity="0"/>
      <stop offset="0.12" stop-color="#00C853" stop-opacity="1"/>
      <stop offset="0.5"  stop-color="#69F0AE" stop-opacity="1"/>
      <stop offset="0.88" stop-color="#00C853" stop-opacity="1"/>
      <stop offset="1"    stop-color="#00C853" stop-opacity="0"/>
    </linearGradient>
  </defs>
  <line x1="21.5" y1="26.50" x2="21.5" y2="7.50" stroke="url(#g)" stroke-width="1.6" stroke-linecap="round"/><line x1="64.5" y1="7.50" x2="64.5" y2="26.50" stroke="url(#g)" stroke-width="1.6" stroke-linecap="round"/><line x1="107.5" y1="26.50" x2="107.5" y2="7.50" stroke="url(#g)" stroke-width="1.6" stroke-linecap="round"/><line x1="150.5" y1="7.50" x2="150.5" y2="26.50" stroke="url(#g)" stroke-width="1.6" stroke-linecap="round"/><line x1="193.5" y1="26.50" x2="193.5" y2="7.50" stroke="url(#g)" stroke-width="1.6" stroke-linecap="round"/><line x1="236.5" y1="7.50" x2="236.5" y2="26.50" stroke="url(#g)" stroke-width="1.6" stroke-linecap="round"/><line x1="279.5" y1="26.50" x2="279.5" y2="7.50" stroke="url(#g)" stroke-width="1.6" stroke-linecap="round"/><line x1="322.5" y1="7.50" x2="322.5" y2="26.50" stroke="url(#g)" stroke-width="1.6" stroke-linecap="round"/><line x1="365.5" y1="26.50" x2="365.5" y2="7.50" stroke="url(#g)" stroke-width="1.6" stroke-linecap="round"/><line x1="408.5" y1="7.50" x2="408.5" y2="26.50" stroke="url(#g)" stroke-width="1.6" stroke-linecap="round"/><line x1="451.5" y1="26.50" x2="451.5" y2="7.50" stroke="url(#g)" stroke-width="1.6" stroke-linecap="round"/><line x1="494.5" y1="7.50" x2="494.5" y2="26.50" stroke="url(#g)" stroke-width="1.6" stroke-linecap="round"/><line x1="537.5" y1="26.50" x2="537.5" y2="7.50" stroke="url(#g)" stroke-width="1.6" stroke-linecap="round"/><line x1="580.5" y1="7.50" x2="580.5" y2="26.50" stroke="url(#g)" stroke-width="1.6" stroke-linecap="round"/><line x1="623.5" y1="26.50" x2="623.5" y2="7.50" stroke="url(#g)" stroke-width="1.6" stroke-linecap="round"/><line x1="666.5" y1="7.50" x2="666.5" y2="26.50" stroke="url(#g)" stroke-width="1.6" stroke-linecap="round"/><line x1="709.5" y1="26.50" x2="709.5" y2="7.50" stroke="url(#g)" stroke-width="1.6" stroke-linecap="round"/><line x1="752.5" y1="7.50" x2="752.5" y2="26.50" stroke="url(#g)" stroke-width="1.6" stroke-linecap="round"/><line x1="795.5" y1="26.50" x2="795.5" y2="7.50" stroke="url(#g)" stroke-width="1.6" stroke-linecap="round"/><line x1="838.5" y1="7.50" x2="838.5" y2="26.50" stroke="url(#g)" stroke-width="1.6" stroke-linecap="round"/>
  <path d="M 0.0,17.00 L 3.0,19.07 L 6.0,21.03 L 9.0,22.81 L 12.0,24.30 L 15.0,25.45 L 18.0,26.19 L 21.0,26.49 L 24.0,26.34 L 27.0,25.74 L 30.0,24.73 L 33.0,23.34 L 36.0,21.65 L 39.0,19.74 L 42.0,17.69 L 45.0,15.62 L 48.0,13.61 L 51.0,11.76 L 54.0,10.16 L 57.0,8.89 L 60.0,8.01 L 63.0,7.56 L 66.0,7.56 L 69.0,8.01 L 72.0,8.89 L 75.0,10.16 L 78.0,11.76 L 81.0,13.61 L 84.0,15.62 L 87.0,17.69 L 90.0,19.74 L 93.0,21.65 L 96.0,23.34 L 99.0,24.73 L 102.0,25.74 L 105.0,26.34 L 108.0,26.49 L 111.0,26.19 L 114.0,25.45 L 117.0,24.30 L 120.0,22.81 L 123.0,21.03 L 126.0,19.07 L 129.0,17.00 L 132.0,14.93 L 135.0,12.97 L 138.0,11.19 L 141.0,9.70 L 144.0,8.55 L 147.0,7.81 L 150.0,7.51 L 153.0,7.66 L 156.0,8.26 L 159.0,9.27 L 162.0,10.66 L 165.0,12.35 L 168.0,14.26 L 171.0,16.31 L 174.0,18.38 L 177.0,20.39 L 180.0,22.24 L 183.0,23.84 L 186.0,25.11 L 189.0,25.99 L 192.0,26.44 L 195.0,26.44 L 198.0,25.99 L 201.0,25.11 L 204.0,23.84 L 207.0,22.24 L 210.0,20.39 L 213.0,18.38 L 216.0,16.31 L 219.0,14.26 L 222.0,12.35 L 225.0,10.66 L 228.0,9.27 L 231.0,8.26 L 234.0,7.66 L 237.0,7.51 L 240.0,7.81 L 243.0,8.55 L 246.0,9.70 L 249.0,11.19 L 252.0,12.97 L 255.0,14.93 L 258.0,17.00 L 261.0,19.07 L 264.0,21.03 L 267.0,22.81 L 270.0,24.30 L 273.0,25.45 L 276.0,26.19 L 279.0,26.49 L 282.0,26.34 L 285.0,25.74 L 288.0,24.73 L 291.0,23.34 L 294.0,21.65 L 297.0,19.74 L 300.0,17.69 L 303.0,15.62 L 306.0,13.61 L 309.0,11.76 L 312.0,10.16 L 315.0,8.89 L 318.0,8.01 L 321.0,7.56 L 324.0,7.56 L 327.0,8.01 L 330.0,8.89 L 333.0,10.16 L 336.0,11.76 L 339.0,13.61 L 342.0,15.62 L 345.0,17.69 L 348.0,19.74 L 351.0,21.65 L 354.0,23.34 L 357.0,24.73 L 360.0,25.74 L 363.0,26.34 L 366.0,26.49 L 369.0,26.19 L 372.0,25.45 L 375.0,24.30 L 378.0,22.81 L 381.0,21.03 L 384.0,19.07 L 387.0,17.00 L 390.0,14.93 L 393.0,12.97 L 396.0,11.19 L 399.0,9.70 L 402.0,8.55 L 405.0,7.81 L 408.0,7.51 L 411.0,7.66 L 414.0,8.26 L 417.0,9.27 L 420.0,10.66 L 423.0,12.35 L 426.0,14.26 L 429.0,16.31 L 432.0,18.38 L 435.0,20.39 L 438.0,22.24 L 441.0,23.84 L 444.0,25.11 L 447.0,25.99 L 450.0,26.44 L 453.0,26.44 L 456.0,25.99 L 459.0,25.11 L 462.0,23.84 L 465.0,22.24 L 468.0,20.39 L 471.0,18.38 L 474.0,16.31 L 477.0,14.26 L 480.0,12.35 L 483.0,10.66 L 486.0,9.27 L 489.0,8.26 L 492.0,7.66 L 495.0,7.51 L 498.0,7.81 L 501.0,8.55 L 504.0,9.70 L 507.0,11.19 L 510.0,12.97 L 513.0,14.93 L 516.0,17.00 L 519.0,19.07 L 522.0,21.03 L 525.0,22.81 L 528.0,24.30 L 531.0,25.45 L 534.0,26.19 L 537.0,26.49 L 540.0,26.34 L 543.0,25.74 L 546.0,24.73 L 549.0,23.34 L 552.0,21.65 L 555.0,19.74 L 558.0,17.69 L 561.0,15.62 L 564.0,13.61 L 567.0,11.76 L 570.0,10.16 L 573.0,8.89 L 576.0,8.01 L 579.0,7.56 L 582.0,7.56 L 585.0,8.01 L 588.0,8.89 L 591.0,10.16 L 594.0,11.76 L 597.0,13.61 L 600.0,15.62 L 603.0,17.69 L 606.0,19.74 L 609.0,21.65 L 612.0,23.34 L 615.0,24.73 L 618.0,25.74 L 621.0,26.34 L 624.0,26.49 L 627.0,26.19 L 630.0,25.45 L 633.0,24.30 L 636.0,22.81 L 639.0,21.03 L 642.0,19.07 L 645.0,17.00 L 648.0,14.93 L 651.0,12.97 L 654.0,11.19 L 657.0,9.70 L 660.0,8.55 L 663.0,7.81 L 666.0,7.51 L 669.0,7.66 L 672.0,8.26 L 675.0,9.27 L 678.0,10.66 L 681.0,12.35 L 684.0,14.26 L 687.0,16.31 L 690.0,18.38 L 693.0,20.39 L 696.0,22.24 L 699.0,23.84 L 702.0,25.11 L 705.0,25.99 L 708.0,26.44 L 711.0,26.44 L 714.0,25.99 L 717.0,25.11 L 720.0,23.84 L 723.0,22.24 L 726.0,20.39 L 729.0,18.38 L 732.0,16.31 L 735.0,14.26 L 738.0,12.35 L 741.0,10.66 L 744.0,9.27 L 747.0,8.26 L 750.0,7.66 L 753.0,7.51 L 756.0,7.81 L 759.0,8.55 L 762.0,9.70 L 765.0,11.19 L 768.0,12.97 L 771.0,14.93 L 774.0,17.00 L 777.0,19.07 L 780.0,21.03 L 783.0,22.81 L 786.0,24.30 L 789.0,25.45 L 792.0,26.19 L 795.0,26.49 L 798.0,26.34 L 801.0,25.74 L 804.0,24.73 L 807.0,23.34 L 810.0,21.65 L 813.0,19.74 L 816.0,17.69 L 819.0,15.62 L 822.0,13.61 L 825.0,11.76 L 828.0,10.16 L 831.0,8.89 L 834.0,8.01 L 837.0,7.56 L 840.0,7.56 L 843.0,8.01 L 846.0,8.89 L 849.0,10.16 L 852.0,11.76 L 855.0,13.61 L 858.0,15.62"        stroke="url(#g)" stroke-width="2.4" stroke-linecap="round"/>
  <path d="M 0.0,17.00 L 3.0,14.93 L 6.0,12.97 L 9.0,11.19 L 12.0,9.70 L 15.0,8.55 L 18.0,7.81 L 21.0,7.51 L 24.0,7.66 L 27.0,8.26 L 30.0,9.27 L 33.0,10.66 L 36.0,12.35 L 39.0,14.26 L 42.0,16.31 L 45.0,18.38 L 48.0,20.39 L 51.0,22.24 L 54.0,23.84 L 57.0,25.11 L 60.0,25.99 L 63.0,26.44 L 66.0,26.44 L 69.0,25.99 L 72.0,25.11 L 75.0,23.84 L 78.0,22.24 L 81.0,20.39 L 84.0,18.38 L 87.0,16.31 L 90.0,14.26 L 93.0,12.35 L 96.0,10.66 L 99.0,9.27 L 102.0,8.26 L 105.0,7.66 L 108.0,7.51 L 111.0,7.81 L 114.0,8.55 L 117.0,9.70 L 120.0,11.19 L 123.0,12.97 L 126.0,14.93 L 129.0,17.00 L 132.0,19.07 L 135.0,21.03 L 138.0,22.81 L 141.0,24.30 L 144.0,25.45 L 147.0,26.19 L 150.0,26.49 L 153.0,26.34 L 156.0,25.74 L 159.0,24.73 L 162.0,23.34 L 165.0,21.65 L 168.0,19.74 L 171.0,17.69 L 174.0,15.62 L 177.0,13.61 L 180.0,11.76 L 183.0,10.16 L 186.0,8.89 L 189.0,8.01 L 192.0,7.56 L 195.0,7.56 L 198.0,8.01 L 201.0,8.89 L 204.0,10.16 L 207.0,11.76 L 210.0,13.61 L 213.0,15.62 L 216.0,17.69 L 219.0,19.74 L 222.0,21.65 L 225.0,23.34 L 228.0,24.73 L 231.0,25.74 L 234.0,26.34 L 237.0,26.49 L 240.0,26.19 L 243.0,25.45 L 246.0,24.30 L 249.0,22.81 L 252.0,21.03 L 255.0,19.07 L 258.0,17.00 L 261.0,14.93 L 264.0,12.97 L 267.0,11.19 L 270.0,9.70 L 273.0,8.55 L 276.0,7.81 L 279.0,7.51 L 282.0,7.66 L 285.0,8.26 L 288.0,9.27 L 291.0,10.66 L 294.0,12.35 L 297.0,14.26 L 300.0,16.31 L 303.0,18.38 L 306.0,20.39 L 309.0,22.24 L 312.0,23.84 L 315.0,25.11 L 318.0,25.99 L 321.0,26.44 L 324.0,26.44 L 327.0,25.99 L 330.0,25.11 L 333.0,23.84 L 336.0,22.24 L 339.0,20.39 L 342.0,18.38 L 345.0,16.31 L 348.0,14.26 L 351.0,12.35 L 354.0,10.66 L 357.0,9.27 L 360.0,8.26 L 363.0,7.66 L 366.0,7.51 L 369.0,7.81 L 372.0,8.55 L 375.0,9.70 L 378.0,11.19 L 381.0,12.97 L 384.0,14.93 L 387.0,17.00 L 390.0,19.07 L 393.0,21.03 L 396.0,22.81 L 399.0,24.30 L 402.0,25.45 L 405.0,26.19 L 408.0,26.49 L 411.0,26.34 L 414.0,25.74 L 417.0,24.73 L 420.0,23.34 L 423.0,21.65 L 426.0,19.74 L 429.0,17.69 L 432.0,15.62 L 435.0,13.61 L 438.0,11.76 L 441.0,10.16 L 444.0,8.89 L 447.0,8.01 L 450.0,7.56 L 453.0,7.56 L 456.0,8.01 L 459.0,8.89 L 462.0,10.16 L 465.0,11.76 L 468.0,13.61 L 471.0,15.62 L 474.0,17.69 L 477.0,19.74 L 480.0,21.65 L 483.0,23.34 L 486.0,24.73 L 489.0,25.74 L 492.0,26.34 L 495.0,26.49 L 498.0,26.19 L 501.0,25.45 L 504.0,24.30 L 507.0,22.81 L 510.0,21.03 L 513.0,19.07 L 516.0,17.00 L 519.0,14.93 L 522.0,12.97 L 525.0,11.19 L 528.0,9.70 L 531.0,8.55 L 534.0,7.81 L 537.0,7.51 L 540.0,7.66 L 543.0,8.26 L 546.0,9.27 L 549.0,10.66 L 552.0,12.35 L 555.0,14.26 L 558.0,16.31 L 561.0,18.38 L 564.0,20.39 L 567.0,22.24 L 570.0,23.84 L 573.0,25.11 L 576.0,25.99 L 579.0,26.44 L 582.0,26.44 L 585.0,25.99 L 588.0,25.11 L 591.0,23.84 L 594.0,22.24 L 597.0,20.39 L 600.0,18.38 L 603.0,16.31 L 606.0,14.26 L 609.0,12.35 L 612.0,10.66 L 615.0,9.27 L 618.0,8.26 L 621.0,7.66 L 624.0,7.51 L 627.0,7.81 L 630.0,8.55 L 633.0,9.70 L 636.0,11.19 L 639.0,12.97 L 642.0,14.93 L 645.0,17.00 L 648.0,19.07 L 651.0,21.03 L 654.0,22.81 L 657.0,24.30 L 660.0,25.45 L 663.0,26.19 L 666.0,26.49 L 669.0,26.34 L 672.0,25.74 L 675.0,24.73 L 678.0,23.34 L 681.0,21.65 L 684.0,19.74 L 687.0,17.69 L 690.0,15.62 L 693.0,13.61 L 696.0,11.76 L 699.0,10.16 L 702.0,8.89 L 705.0,8.01 L 708.0,7.56 L 711.0,7.56 L 714.0,8.01 L 717.0,8.89 L 720.0,10.16 L 723.0,11.76 L 726.0,13.61 L 729.0,15.62 L 732.0,17.69 L 735.0,19.74 L 738.0,21.65 L 741.0,23.34 L 744.0,24.73 L 747.0,25.74 L 750.0,26.34 L 753.0,26.49 L 756.0,26.19 L 759.0,25.45 L 762.0,24.30 L 765.0,22.81 L 768.0,21.03 L 771.0,19.07 L 774.0,17.00 L 777.0,14.93 L 780.0,12.97 L 783.0,11.19 L 786.0,9.70 L 789.0,8.55 L 792.0,7.81 L 795.0,7.51 L 798.0,7.66 L 801.0,8.26 L 804.0,9.27 L 807.0,10.66 L 810.0,12.35 L 813.0,14.26 L 816.0,16.31 L 819.0,18.38 L 822.0,20.39 L 825.0,22.24 L 828.0,23.84 L 831.0,25.11 L 834.0,25.99 L 837.0,26.44 L 840.0,26.44 L 843.0,25.99 L 846.0,25.11 L 849.0,23.84 L 852.0,22.24 L 855.0,20.39 L 858.0,18.38"  stroke="url(#g)" stroke-width="2.4" stroke-linecap="round"/>
</svg>
