<svg xmlns="http://www.w3.org/2000/svg" viewBox="0 0 860 240" width="100%" font-family="'SFMono-Regular','SF Mono','Menlo','Consolas','Liberation Mono','DejaVu Sans Mono',monospace">
  <rect x="0.5" y="0.5" width="859" height="239" rx="12" fill="#0D1117" stroke="#30363d" stroke-width="1"/>
  <text x="24" y="28" font-size="12.5" fill="#7d8590" letter-spacing="1">export: two stages</text>
  <rect x="30" y="70" width="168" height="52" rx="9" fill="#161B22" stroke="#30363d" stroke-width="1.6"/>
  <text x="114" y="88" text-anchor="middle" font-size="12.5" font-weight="bold" fill="#e6edf3">wide taxonomy</text>
  <text x="114" y="104" text-anchor="middle" font-size="11"  fill="#8b949e">table (CSV)</text>
  <line x1="198" y1="96" x2="292" y2="96" stroke="#3fb950" stroke-width="1.8"/>
  <path d="M 292 90 L 300 96 L 292 102 z" fill="#3fb950"/>
  <text x="249" y="87" text-anchor="middle" font-size="11" fill="#7ee787">format-gbif</text>
  <rect x="300" y="70" width="168" height="52" rx="9" fill="#161B22" stroke="#00C853" stroke-width="1.6"/>
  <text x="384" y="88" text-anchor="middle" font-size="12.5" font-weight="bold" fill="#e6edf3">long table</text>
  <text x="384" y="104" text-anchor="middle" font-size="11"  fill="#8b949e">feature x sample</text>
  <line x1="468" y1="96" x2="604" y2="96" stroke="#3fb950" stroke-width="1.8"/>
  <path d="M 604 90 L 612 96 L 604 102 z" fill="#3fb950"/>
  <text x="540" y="87" text-anchor="middle" font-size="11" fill="#7ee787">create-gbif</text>
  <rect x="612" y="64" width="218" height="64" rx="9" fill="#0a6b32" stroke="#00C853" stroke-width="1.6"/>
  <text x="721" y="80" text-anchor="middle" font-size="13" font-weight="bold" fill="#7ee787">DarwinCore</text>
  <text x="721" y="96" text-anchor="middle" font-size="11.5"  fill="#e6edf3">occurrence CSV</text>
  <text x="721" y="112" text-anchor="middle" font-size="10.5"  fill="#8b949e">39 columns</text>
  <rect x="360" y="180" width="260" height="40" rx="9" fill="#161B22" stroke="#2ea043" stroke-width="1.6"/>
  <text x="490" y="200" text-anchor="middle" font-size="11.5"  fill="#e6edf3">sample + project metadata</text>
  <line x1="490" y1="180" x2="490" y2="108" stroke="#3fb950" stroke-width="1.6" stroke-dasharray="4 3"/><path d="M 484 108 L 496 108 L 490 100 z" fill="#3fb950"/>
  <text x="500" y="150" font-size="10.5" fill="#7d8590">join on eventID</text>
</svg>
