<svg xmlns="http://www.w3.org/2000/svg" viewBox="0 0 860 345" width="100%" font-family="'SFMono-Regular','SF Mono','Menlo','Consolas','Liberation Mono','DejaVu Sans Mono',monospace">
  <rect x="0.5" y="0.5" width="859" height="344" rx="12" fill="#0D1117" stroke="#30363d" stroke-width="1"/>
  <text x="24" y="30" font-size="12.5" fill="#7d8590" letter-spacing="1">feature path  ·  pick one (mutually exclusive)</text>
  <text x="220" y="58" text-anchor="middle" font-size="14" font-weight="bold" fill="#7ee787">SWARM  to  OTUs</text>
  <rect x="40" y="74" width="360" height="30" rx="7" fill="#161B22" stroke="#2ea043" stroke-width="1.3"/>
  <text x="220" y="93" text-anchor="middle" font-size="12" fill="#e6edf3">merge pairs</text>
  <rect x="40" y="119" width="360" height="30" rx="7" fill="#161B22" stroke="#2ea043" stroke-width="1.3"/>
  <text x="220" y="138" text-anchor="middle" font-size="12" fill="#e6edf3">dereplicate (per-sample + global)</text>
  <rect x="40" y="164" width="360" height="30" rx="7" fill="#161B22" stroke="#2ea043" stroke-width="1.3"/>
  <text x="220" y="183" text-anchor="middle" font-size="12" fill="#e6edf3">cluster  (swarm, d=1)</text>
  <rect x="40" y="209" width="360" height="30" rx="7" fill="#161B22" stroke="#2ea043" stroke-width="1.3"/>
  <text x="220" y="228" text-anchor="middle" font-size="12" fill="#e6edf3">remove chimeras (de novo)</text>
  <line x1="220" y1="104" x2="220" y2="112" stroke="#3fb950" stroke-width="1.6"/><path d="M 216 112 L 224 112 L 220 119 z" fill="#3fb950"/>
  <line x1="220" y1="149" x2="220" y2="157" stroke="#3fb950" stroke-width="1.6"/><path d="M 216 157 L 224 157 L 220 164 z" fill="#3fb950"/>
  <line x1="220" y1="194" x2="220" y2="202" stroke="#3fb950" stroke-width="1.6"/><path d="M 216 202 L 224 202 L 220 209 z" fill="#3fb950"/>
  <line x1="220" y1="239" x2="220" y2="247" stroke="#3fb950" stroke-width="1.6"/><path d="M 216 247 L 224 247 L 220 254 z" fill="#3fb950"/>
  <rect x="40" y="254" width="360" height="30" rx="7" fill="#0a6b32" fill-opacity="0.35" stroke="#00C853" stroke-width="1.4"/>
  <text x="220" y="273" text-anchor="middle" font-size="12" font-weight="bold" fill="#7ee787">otu_table.csv + query.fasta</text>
  <text x="640" y="58" text-anchor="middle" font-size="14" font-weight="bold" fill="#7ee787">DADA2  to  ASVs</text>
  <rect x="460" y="74" width="360" height="30" rx="7" fill="#161B22" stroke="#2ea043" stroke-width="1.3"/>
  <text x="640" y="93" text-anchor="middle" font-size="12" fill="#e6edf3">quality filter (maxEE, truncQ)</text>
  <rect x="460" y="119" width="360" height="30" rx="7" fill="#161B22" stroke="#2ea043" stroke-width="1.3"/>
  <text x="640" y="138" text-anchor="middle" font-size="12" fill="#e6edf3">learn error model</text>
  <rect x="460" y="164" width="360" height="30" rx="7" fill="#161B22" stroke="#2ea043" stroke-width="1.3"/>
  <text x="640" y="183" text-anchor="middle" font-size="12" fill="#e6edf3">denoise to exact ASVs</text>
  <rect x="460" y="209" width="360" height="30" rx="7" fill="#161B22" stroke="#2ea043" stroke-width="1.3"/>
  <text x="640" y="228" text-anchor="middle" font-size="12" fill="#e6edf3">merge pairs</text>
  <rect x="460" y="254" width="360" height="30" rx="7" fill="#161B22" stroke="#2ea043" stroke-width="1.3"/>
  <text x="640" y="273" text-anchor="middle" font-size="12" fill="#e6edf3">remove chimeras (consensus)</text>
  <line x1="640" y1="104" x2="640" y2="112" stroke="#3fb950" stroke-width="1.6"/><path d="M 636 112 L 644 112 L 640 119 z" fill="#3fb950"/>
  <line x1="640" y1="149" x2="640" y2="157" stroke="#3fb950" stroke-width="1.6"/><path d="M 636 157 L 644 157 L 640 164 z" fill="#3fb950"/>
  <line x1="640" y1="194" x2="640" y2="202" stroke="#3fb950" stroke-width="1.6"/><path d="M 636 202 L 644 202 L 640 209 z" fill="#3fb950"/>
  <line x1="640" y1="239" x2="640" y2="247" stroke="#3fb950" stroke-width="1.6"/><path d="M 636 247 L 644 247 L 640 254 z" fill="#3fb950"/>
  <line x1="640" y1="284" x2="640" y2="292" stroke="#3fb950" stroke-width="1.6"/><path d="M 636 292 L 644 292 L 640 299 z" fill="#3fb950"/>
  <rect x="460" y="299" width="360" height="30" rx="7" fill="#0a6b32" fill-opacity="0.35" stroke="#00C853" stroke-width="1.4"/>
  <text x="640" y="318" text-anchor="middle" font-size="12" font-weight="bold" fill="#7ee787">ASV table + sequences</text>
  <circle cx="430" cy="172" r="17" fill="#161B22" stroke="#00C853" stroke-width="1.4"/>
  <text x="430" y="176" text-anchor="middle" font-size="11" font-weight="bold" fill="#00C853">OR</text>
</svg>
