<svg xmlns="http://www.w3.org/2000/svg" viewBox="0 0 900 302" width="100%" font-family="'SFMono-Regular','SF Mono','Menlo','Consolas','Liberation Mono','DejaVu Sans Mono',monospace">
  <rect x="0.5" y="0.5" width="899" height="301" rx="11" fill="#0D1117" stroke="#30363d" stroke-width="1"/>
  <path d="M 0 11 a 11 11 0 0 1 11 -11 h 878 a 11 11 0 0 1 11 11 v 31 h -900 z" fill="#161B22"/>
  <line x1="0" y1="42" x2="900" y2="42" stroke="#30363d" stroke-width="1"/>
  <rect x="20" y="14" width="5" height="14" rx="1" fill="#00C853"/><rect x="28" y="18" width="5" height="10" rx="1" fill="#3fb950"/><rect x="36" y="22" width="5" height="6" rx="1" fill="#2ea043"/>
  <text x="52" y="25" font-size="12.5" fill="#7d8590" letter-spacing="0.5">read tracking</text>
  <defs><linearGradient id="bar" x1="0" y1="0" x2="1" y2="0"><stop offset="0" stop-color="#0a6b32"/><stop offset="1" stop-color="#00C853"/></linearGradient></defs>
  <text x="158" y="77" text-anchor="end" font-size="13" fill="#e6edf3">raw</text>
  <rect x="172" y="63" width="578" height="19" rx="4" fill="url(#bar)"/>
  <text x="760" y="77" font-size="11.5" fill="#6e7681">100%</text>
  <text x="158" y="111" text-anchor="end" font-size="13" fill="#e6edf3">trimmed</text>
  <rect x="172" y="97" width="543" height="19" rx="4" fill="url(#bar)"/>
  <text x="725" y="111" font-size="11.5" fill="#6e7681">94%</text>
  <text x="158" y="145" text-anchor="end" font-size="13" fill="#e6edf3">filtered</text>
  <rect x="172" y="131" width="468" height="19" rx="4" fill="url(#bar)"/>
  <text x="650" y="145" font-size="11.5" fill="#6e7681">81%</text>
  <text x="158" y="179" text-anchor="end" font-size="13" fill="#e6edf3">denoised</text>
  <rect x="172" y="165" width="456" height="19" rx="4" fill="url(#bar)"/>
  <text x="638" y="179" font-size="11.5" fill="#6e7681">79%</text>
  <text x="158" y="213" text-anchor="end" font-size="13" fill="#e6edf3">merged</text>
  <rect x="172" y="199" width="421" height="19" rx="4" fill="url(#bar)"/>
  <text x="603" y="213" font-size="11.5" fill="#6e7681">73%</text>
  <text x="158" y="247" text-anchor="end" font-size="13" fill="#e6edf3">nonchim</text>
  <rect x="172" y="233" width="404" height="19" rx="4" fill="url(#bar)"/>
  <text x="586" y="247" font-size="11.5" fill="#6e7681">70%</text>
  <text x="158" y="286" text-anchor="end" font-size="11" fill="#6e7681">reads surviving each step, per sample</text>
  <text x="172" y="286" font-size="11" fill="#6e7681">(illustrative; DADA2 chain. SWARM: raw to trimmed to clustered)</text>
</svg>
