<svg xmlns="http://www.w3.org/2000/svg" viewBox="0 0 860 236" width="100%" font-family="'SFMono-Regular','SF Mono','Menlo','Consolas','Liberation Mono','DejaVu Sans Mono',monospace">
  <rect x="0.5" y="0.5" width="859" height="235" rx="11" fill="#0D1117" stroke="#30363d" stroke-width="1"/>
  <path d="M 0 11 a 11 11 0 0 1 11 -11 h 838 a 11 11 0 0 1 11 11 v 31 h -860 z" fill="#161B22"/>
  <line x1="0" y1="42" x2="860" y2="42" stroke="#30363d" stroke-width="1"/>
  <rect x="20" y="13" width="22" height="16" rx="2" fill="none" stroke="#00C853" stroke-width="1.3"/><line x1="20" y1="19" x2="42" y2="19" stroke="#00C853" stroke-width="1.1"/><line x1="31" y1="13" x2="31" y2="29" stroke="#00C853" stroke-width="1.1"/>
  <text x="52" y="25" font-size="12.5" fill="#7d8590" letter-spacing="0.5">read_tracking.csv</text>
<text x="24" y="70" text-anchor="start" font-size="12.5" font-weight="bold" fill="#3fb950">sample</text>
<text x="330" y="70" text-anchor="end" font-size="12.5" font-weight="bold" fill="#3fb950">raw</text>
<text x="450" y="70" text-anchor="end" font-size="12.5" font-weight="bold" fill="#3fb950">trimmed</text>
<text x="575" y="70" text-anchor="end" font-size="12.5" font-weight="bold" fill="#3fb950">denoised</text>
<text x="690" y="70" text-anchor="end" font-size="12.5" font-weight="bold" fill="#3fb950">nonchim</text>
<text x="824" y="70" text-anchor="end" font-size="12.5" font-weight="bold" fill="#3fb950">% retained</text>
<line x1="20" y1="78" x2="840" y2="78" stroke="#30363d" stroke-width="1"/>
<text x="24" y="98" font-size="12.5" fill="#e6edf3">DAR-2025-01</text>
<text x="330" y="98" text-anchor="end" font-size="12.5" fill="#adbac7">412,330</text>
<text x="450" y="98" text-anchor="end" font-size="12.5" fill="#adbac7">389,102</text>
<text x="575" y="98" text-anchor="end" font-size="12.5" fill="#adbac7">371,540</text>
<text x="690" y="98" text-anchor="end" font-size="12.5" fill="#adbac7">358,990</text>
<text x="824" y="98" text-anchor="end" font-size="12.5" font-weight="bold" fill="#3fb950">87.1%</text>
<text x="24" y="124" font-size="12.5" fill="#e6edf3">DAR-2025-02</text>
<text x="330" y="124" text-anchor="end" font-size="12.5" fill="#adbac7">388,210</text>
<text x="450" y="124" text-anchor="end" font-size="12.5" fill="#adbac7">365,400</text>
<text x="575" y="124" text-anchor="end" font-size="12.5" fill="#adbac7">349,880</text>
<text x="690" y="124" text-anchor="end" font-size="12.5" fill="#adbac7">341,220</text>
<text x="824" y="124" text-anchor="end" font-size="12.5" font-weight="bold" fill="#3fb950">87.9%</text>
<text x="24" y="150" font-size="12.5" fill="#e6edf3">DAR-2025-03</text>
<text x="330" y="150" text-anchor="end" font-size="12.5" fill="#adbac7">256,870</text>
<text x="450" y="150" text-anchor="end" font-size="12.5" fill="#adbac7">240,110</text>
<text x="575" y="150" text-anchor="end" font-size="12.5" fill="#adbac7">228,300</text>
<text x="690" y="150" text-anchor="end" font-size="12.5" fill="#adbac7">221,540</text>
<text x="824" y="150" text-anchor="end" font-size="12.5" font-weight="bold" fill="#3fb950">86.2%</text>
<rect x="12" y="161" width="836" height="24" rx="4" fill="#d29922" fill-opacity="0.10"/>
<rect x="12" y="161" width="3" height="24" rx="1.5" fill="#d29922"/>
<text x="24" y="176" font-size="12.5" fill="#e6edf3">Blank-PCR-1</text>
<text x="330" y="176" text-anchor="end" font-size="12.5" fill="#adbac7">1,204</text>
<text x="450" y="176" text-anchor="end" font-size="12.5" fill="#adbac7">640</text>
<text x="575" y="176" text-anchor="end" font-size="12.5" fill="#adbac7">210</text>
<text x="690" y="176" text-anchor="end" font-size="12.5" fill="#adbac7">38</text>
<text x="824" y="176" text-anchor="end" font-size="12.5" font-weight="bold" fill="#d29922">3.2%</text>
<text x="24" y="206" font-size="11" fill="#6e7681">a row whose % retained falls below report.warn_below_retention_pct (default 30) raises a [WARN]</text>
</svg>
