<svg xmlns="http://www.w3.org/2000/svg" viewBox="0 0 860 232" width="100%" font-family="'SFMono-Regular','SF Mono','Menlo','Consolas','Liberation Mono','DejaVu Sans Mono',monospace">
  <rect x="0.5" y="0.5" width="859" height="231" rx="12" fill="#0D1117" stroke="#30363d" stroke-width="1"/>
  <text x="24" y="28" font-size="12.5" fill="#7d8590" letter-spacing="1">format-gbif: reshape wide to long</text>
  <text x="40" y="58" font-size="12" font-weight="bold" fill="#7ee787">wide taxonomy table</text>
  <text x="40" y="82" text-anchor="start" font-size="12.5" font-weight="bold" fill="#3fb950"></text>
  <text x="210" y="82" text-anchor="end" font-size="12.5" font-weight="bold" fill="#3fb950">S1</text>
  <text x="270" y="82" text-anchor="end" font-size="12.5" font-weight="bold" fill="#3fb950">S2</text>
  <text x="330" y="82" text-anchor="end" font-size="12.5" font-weight="bold" fill="#3fb950">S3</text>
  <line x1="36" y1="90" x2="345" y2="90" stroke="#30363d"/>
  <text x="40" y="110" font-size="12.5" fill="#e6edf3">OTU_1</text>
  <text x="210" y="110" text-anchor="end" font-size="12.5" fill="#adbac7">120</text>
  <text x="270" y="110" text-anchor="end" font-size="12.5" fill="#484f58">0</text>
  <text x="330" y="110" text-anchor="end" font-size="12.5" fill="#adbac7">45</text>
  <text x="40" y="136" font-size="12.5" fill="#e6edf3">OTU_2</text>
  <text x="210" y="136" text-anchor="end" font-size="12.5" fill="#adbac7">8</text>
  <text x="270" y="136" text-anchor="end" font-size="12.5" fill="#adbac7">60</text>
  <text x="330" y="136" text-anchor="end" font-size="12.5" fill="#484f58">0</text>
  <line x1="375" y1="120" x2="455" y2="120" stroke="#3fb950" stroke-width="1.8"/><path d="M 455 114 L 463 120 L 455 126 z" fill="#3fb950"/>
  <text x="415" y="108" text-anchor="middle" font-size="10.5" fill="#7d8590">melt</text>
  <text x="415" y="140" text-anchor="middle" font-size="10.5" fill="#7d8590">drop 0s</text>
  <text x="490" y="58" font-size="12" font-weight="bold" fill="#7ee787">long format (one row per observation)</text>
  <text x="490" y="82" text-anchor="start" font-size="12.5" font-weight="bold" fill="#3fb950">eventID</text>
  <text x="610" y="82" text-anchor="start" font-size="12.5" font-weight="bold" fill="#3fb950">taxon</text>
  <text x="820" y="82" text-anchor="end" font-size="12.5" font-weight="bold" fill="#3fb950">nb_reads</text>
  <line x1="486" y1="90" x2="824" y2="90" stroke="#30363d"/>
  <text x="490" y="110" font-size="12.5" fill="#e6edf3">S1</text>
  <text x="610" y="110" font-size="12.5" fill="#e6edf3">OTU_1</text>
  <text x="820" y="110" text-anchor="end" font-size="12.5" fill="#e3b341">120</text>
  <text x="490" y="136" font-size="12.5" fill="#e6edf3">S3</text>
  <text x="610" y="136" font-size="12.5" fill="#e6edf3">OTU_1</text>
  <text x="820" y="136" text-anchor="end" font-size="12.5" fill="#e3b341">45</text>
  <text x="490" y="162" font-size="12.5" fill="#e6edf3">S2</text>
  <text x="610" y="162" font-size="12.5" fill="#e6edf3">OTU_2</text>
  <text x="820" y="162" text-anchor="end" font-size="12.5" fill="#e3b341">60</text>
  <text x="490" y="188" font-size="12.5" fill="#e6edf3">S1</text>
  <text x="610" y="188" font-size="12.5" fill="#e6edf3">OTU_2</text>
  <text x="820" y="188" text-anchor="end" font-size="12.5" fill="#e3b341">8</text>
  <text x="24" y="218" font-size="11" fill="#6e7681">each non-zero cell becomes one row (eventID = sample, nb_reads = count); zero cells are dropped</text>
</svg>
